/* XPM */
static char * flower_xpm[] = {
"25 25 4 1",
" 	c None",
".	c #000000",
"+	c #1934FF",
"@	c #FFFFFF",
"                         ",
"      .......... ....    ",
"     ..++++++.........   ",
"     ...+++++++..+++...  ",
"      ...++++++..++++... ",
"  ........+++++..+++++.. ",
"  ..++++..++++++++++++.. ",
"  .+++++++++++++++++...  ",
"  .++++++++@@@+++++...   ",
"  .++++++@@@@@@++....    ",
"  .......@@@@@@++...     ",
"   ......+@@@@@++.....   ",
"  ...++++++@@+++++++.... ",
"  ..++++++++++++++++++...",
"  ..+++++++++++++++++++..",
"  ..+++++++++++++++++++..",
"  ..+++.+++++++..++++++..",
"  ......+++++++....+.....",
"   .....++++++.. ....... ",
"       ..++++...         ",
"       ........          ",
"         ....            ",
"                         ",
"                         ",
"                         "};
